<svg width="49" height="49" viewBox="0 0 49 49" fill="none" xmlns="http://www.w3.org/2000/svg">
<g id="Image">
<path id="Vector" d="M41.3438 9.1875H7.65625C6.81056 9.1875 6.125 9.87306 6.125 10.7188V38.2812C6.125 39.1269 6.81056 39.8125 7.65625 39.8125H41.3438C42.1894 39.8125 42.875 39.1269 42.875 38.2812V10.7188C42.875 9.87306 42.1894 9.1875 41.3438 9.1875Z" stroke="#676767" stroke-width="2" stroke-linecap="round" stroke-linejoin="round"/>
<path id="Vector_2" d="M6.125 32.1563L15.7527 22.5286C15.8952 22.3839 16.0651 22.269 16.2524 22.1906C16.4397 22.1122 16.6407 22.0718 16.8438 22.0718C17.0468 22.0718 17.2478 22.1122 17.4351 22.1906C17.6224 22.269 17.7923 22.3839 17.9348 22.5286L26.4715 31.0653C26.614 31.21 26.7838 31.3249 26.9711 31.4033C27.1584 31.4817 27.3594 31.5221 27.5625 31.5221C27.7656 31.5221 27.9666 31.4817 28.1539 31.4033C28.3412 31.3249 28.511 31.21 28.6535 31.0653L32.5965 27.1223C32.739 26.9777 32.9088 26.8628 33.0961 26.7843C33.2834 26.7059 33.4844 26.6655 33.6875 26.6655C33.8906 26.6655 34.0916 26.7059 34.2789 26.7843C34.4662 26.8628 34.636 26.9777 34.7785 27.1223L42.875 35.2188" stroke="#676767" stroke-width="2" stroke-linecap="round" stroke-linejoin="round"/>
<path id="Vector_3" d="M29.8594 21.4375C31.1279 21.4375 32.1562 20.4092 32.1562 19.1406C32.1562 17.8721 31.1279 16.8438 29.8594 16.8438C28.5908 16.8438 27.5625 17.8721 27.5625 19.1406C27.5625 20.4092 28.5908 21.4375 29.8594 21.4375Z" fill="#676767"/>
</g>
</svg>
